<?xml version="1.0" standalone="no"?>
<!DOCTYPE svg PUBLIC "-//W3C//DTD SVG 20010904//EN"
 "http://www.w3.org/TR/2001/REC-SVG-20010904/DTD/svg10.dtd">
<svg version="1.0" xmlns="http://www.w3.org/2000/svg"
 width="1040.000000pt" height="780.000000pt" viewBox="0 0 1040.000000 780.000000"
 preserveAspectRatio="xMidYMid meet">

<g transform="translate(0.000000,780.000000) scale(0.100000,-0.100000)"
fill="#000000" stroke="none">
<path d="M3382 6458 c-7 -7 -12 -20 -12 -30 0 -37 42 -172 61 -200 23 -32 80
-78 97 -78 30 0 51 -125 32 -187 -29 -90 -38 -102 -88 -109 -64 -9 -85 -25
-149 -113 -54 -73 -68 -106 -78 -194 -3 -23 -10 -66 -16 -95 -6 -29 -10 -65
-9 -80 1 -15 2 -30 1 -35 -1 -11 -57 20 -80 44 -14 16 -27 20 -45 15 -14 -3
-28 -2 -31 4 -14 22 -50 7 -98 -40 -28 -27 -52 -50 -54 -50 -2 0 -3 10 -3 21
0 13 24 46 61 83 33 34 67 76 75 95 16 39 18 87 4 96 -5 3 -10 17 -10 30 0 13
-5 27 -10 30 -41 25 -62 147 -34 200 8 15 14 35 14 44 0 9 4 21 9 27 5 5 14
36 20 69 5 33 13 72 16 87 5 17 1 39 -9 59 -9 18 -16 37 -16 44 0 6 -12 22
-26 36 -33 31 -63 79 -67 110 -2 13 -10 25 -18 27 -46 9 -69 -160 -29 -211 11
-14 20 -31 20 -38 0 -7 10 -23 21 -36 32 -33 35 -104 10 -177 -30 -84 -27
-149 9 -234 30 -71 38 -116 21 -126 -5 -3 -24 -32 -41 -64 -18 -31 -39 -61
-46 -65 -8 -4 -14 -17 -14 -27 0 -22 -15 -24 -75 -10 -36 9 -42 7 -60 -15 -18
-21 -22 -22 -39 -9 -24 17 -50 18 -64 1 -12 -14 6 -148 21 -164 5 -4 22 -12
38 -18 38 -13 40 -29 5 -35 -16 -3 -34 -13 -40 -23 -9 -16 -7 -22 13 -35 69
-47 69 -46 33 -82 -18 -18 -53 -42 -79 -54 -41 -20 -50 -21 -82 -10 -48 17
-54 17 -77 -5 -11 -10 -29 -21 -40 -25 -10 -3 -39 -24 -63 -46 -27 -25 -48
-37 -55 -32 -6 5 -30 14 -53 22 -38 12 -47 11 -92 -9 -27 -11 -64 -21 -81 -21
-20 0 -44 -10 -62 -25 -28 -24 -32 -25 -52 -10 -37 27 -48 29 -90 13 -25 -9
-49 -27 -61 -46 -11 -17 -26 -31 -33 -32 -7 0 -18 -13 -23 -29 -10 -28 -50
-60 -109 -87 -14 -6 -31 -18 -39 -27 -7 -10 -23 -17 -35 -17 -26 0 -194 -86
-231 -118 -22 -20 -26 -30 -22 -57 5 -29 -1 -38 -66 -102 -40 -39 -82 -76 -95
-82 -38 -20 -96 -103 -137 -197 -22 -49 -49 -105 -60 -124 -42 -70 -74 -158
-99 -270 -29 -130 -30 -143 -15 -168 9 -14 6 -35 -9 -92 -11 -41 -35 -163 -52
-270 -17 -107 -39 -238 -48 -290 -26 -144 -23 -419 6 -522 11 -43 26 -87 33
-99 6 -12 13 -36 16 -53 3 -17 8 -35 13 -41 4 -5 11 -30 15 -54 4 -24 18 -64
31 -89 13 -25 24 -55 24 -67 0 -13 7 -28 15 -35 8 -7 15 -18 15 -25 0 -7 9
-23 19 -37 11 -13 22 -42 26 -64 4 -21 21 -74 37 -116 17 -43 28 -84 24 -93
-3 -8 -1 -15 4 -15 5 0 24 -15 42 -33 46 -47 172 -116 232 -129 28 -5 59 -14
68 -19 9 -4 64 -9 121 -10 88 -2 111 1 148 19 24 11 89 31 144 42 55 12 127
29 160 37 33 8 96 21 140 28 126 22 287 67 313 88 7 5 43 10 80 11 57 0 76 -4
115 -28 54 -31 140 -56 194 -56 40 0 111 18 132 34 8 7 157 11 425 12 436 1
416 -1 566 54 41 16 85 31 97 35 23 6 93 -13 93 -26 0 -12 53 -29 135 -43 58
-10 125 -13 245 -8 333 11 326 12 410 -30 41 -21 84 -38 96 -38 11 0 45 -7 75
-16 34 -11 87 -16 145 -15 103 1 144 -11 185 -56 35 -37 49 -66 49 -99 0 -14
19 -63 41 -108 34 -67 80 -200 106 -303 4 -17 13 -23 34 -23 15 0 52 -10 81
-22 46 -19 69 -22 170 -20 65 0 141 8 171 15 57 15 107 50 107 76 0 8 7 23 16
33 24 26 25 190 2 236 -28 57 -12 209 28 253 9 10 42 23 73 29 31 7 75 16 98
21 23 5 56 9 74 9 17 0 52 6 78 14 171 54 533 76 656 41 43 -12 79 -15 130
-11 216 18 312 19 361 3 117 -37 203 -33 485 25 98 20 235 19 319 -2 101 -26
244 -50 292 -50 30 0 89 9 131 20 109 29 210 37 326 27 l102 -8 25 26 c20 22
31 26 55 21 19 -4 42 0 61 10 24 13 32 13 38 3 7 -10 14 -9 34 4 16 11 35 15
50 11 19 -4 30 3 60 39 20 24 36 47 36 51 0 4 13 26 28 49 38 56 77 140 95
207 18 62 44 139 64 187 7 17 18 65 23 105 5 40 13 87 19 103 10 32 25 330 20
405 -2 25 -2 123 -1 219 1 108 -2 179 -8 186 -6 7 -13 46 -16 86 -3 41 -16
111 -29 155 -13 45 -27 99 -30 120 -8 45 -23 100 -35 129 -12 28 -53 166 -56
190 -8 58 -64 188 -98 225 -20 22 -36 49 -36 61 0 11 -13 33 -29 47 -16 15
-45 42 -65 60 -20 19 -36 43 -36 55 0 12 -9 45 -19 73 -11 28 -16 56 -12 63
14 22 -3 68 -37 96 -17 15 -29 31 -26 36 8 13 -52 79 -90 99 -17 9 -48 26 -69
38 -21 12 -42 22 -48 22 -6 0 -22 9 -36 20 -14 11 -38 20 -54 20 -17 0 -32 7
-38 19 -6 10 -26 28 -46 40 -19 11 -39 31 -44 45 -12 30 -62 66 -93 66 -13 0
-29 9 -36 20 -16 25 -26 25 -62 -2 -64 -47 -65 20 -2 138 67 127 99 154 181
154 68 0 117 26 127 67 4 15 17 46 29 68 52 92 37 143 -47 165 -66 18 -111 0
-184 -74 -33 -34 -63 -69 -66 -78 -4 -9 -2 -34 3 -57 9 -39 7 -44 -31 -92 -22
-28 -43 -63 -47 -77 -8 -32 -61 -152 -75 -169 -16 -19 -49 0 -73 43 -19 34
-27 39 -63 42 -23 2 -50 -1 -60 -7 -40 -21 -52 29 -21 89 4 8 10 23 13 34 6
16 14 18 60 13 58 -6 116 14 149 51 24 27 46 88 47 130 0 42 -50 117 -83 126
-33 8 -120 -19 -154 -48 -15 -13 -37 -26 -49 -30 -19 -6 -35 -28 -47 -66 -3
-9 6 -36 18 -60 l23 -45 -36 -68 c-22 -41 -42 -67 -52 -66 -31 3 -40 -2 -40
-21 0 -31 -32 -24 -52 10 -16 28 -48 42 -48 20 0 -16 -28 -11 -38 6 -7 12 -17
15 -33 11 -13 -4 -39 -1 -57 6 -31 10 -35 10 -51 -11 -16 -21 -20 -22 -47 -11
-16 7 -30 14 -32 15 -1 0 -9 28 -18 60 -21 79 -11 303 15 331 38 42 121 145
131 163 25 47 -20 66 -71 29 -27 -19 -35 -20 -97 -10 -37 6 -105 12 -152 13
-80 3 -85 2 -88 -18 -2 -16 11 -34 49 -65 72 -62 109 -137 109 -226 1 -66 16
-149 39 -206 12 -32 14 -97 3 -112 -4 -6 -23 -16 -43 -23 -30 -10 -41 -10 -68
4 -23 12 -45 14 -77 9 -29 -4 -50 -2 -59 5 -9 7 -26 9 -45 5 -17 -4 -36 -2
-43 3 -22 18 -81 21 -99 5 -15 -13 -18 -12 -31 9 -26 42 -41 167 -40 328 l1
155 36 76 c20 44 56 98 86 130 42 45 70 97 70 132 0 4 -9 16 -20 27 -24 24
-65 25 -220 9 -97 -11 -109 -10 -157 9 -43 16 -55 18 -69 7 -16 -11 -16 -15 4
-59 12 -25 22 -50 22 -54 0 -5 18 -34 39 -65 53 -75 78 -135 102 -242 41 -178
30 -361 -24 -411 -14 -13 -28 -33 -32 -44 -8 -24 -30 -26 -39 -4 -5 12 -13 14
-33 9 -16 -4 -30 -10 -33 -15 -3 -5 -17 -13 -32 -19 -21 -8 -29 -6 -44 10 -21
23 -34 25 -34 4 0 -21 -24 -19 -45 5 -17 19 -20 19 -36 4 -16 -15 -20 -14 -53
11 -32 24 -36 33 -38 74 0 25 -1 53 0 61 13 151 16 163 77 270 28 51 31 78 11
105 -13 18 -18 19 -60 7 -63 -17 -148 -15 -172 3 -28 21 -86 19 -112 -5 -19
-18 -20 -24 -10 -43 24 -47 54 -79 105 -114 53 -36 57 -42 92 -154 7 -22 9
-65 5 -112 -7 -72 -8 -76 -29 -71 -13 3 -27 -1 -35 -11 -9 -11 -22 -14 -45 -9
-27 5 -33 2 -38 -15 -5 -19 -7 -19 -52 -6 -45 14 -47 14 -52 -6 -9 -31 -26
-17 -37 32 -9 34 -16 45 -34 47 -12 2 -27 12 -32 23 -6 10 -17 19 -25 19 -7 0
-16 14 -20 31 -4 18 -15 33 -25 36 -12 3 -21 18 -25 44 -5 29 -12 39 -25 39
-11 0 -23 -8 -29 -17 -8 -15 -12 -16 -22 -5 -7 6 -20 12 -28 12 -20 0 -65 -55
-86 -106 -14 -34 -52 -81 -59 -73 -41 59 -66 111 -72 148 -8 56 -20 81 -39 81
-16 0 -19 -9 -15 -48 2 -24 -24 -72 -39 -72 -5 0 -15 16 -21 35 -8 26 -19 36
-38 40 -15 3 -40 10 -57 15 -16 5 -40 7 -52 4 -17 -5 -23 -2 -23 10 0 13 -7
17 -27 14 -22 -2 -29 -9 -33 -33 -5 -27 -9 -30 -45 -31 -29 0 -41 -5 -43 -17
-2 -8 -13 -17 -25 -19 -18 -2 -23 -12 -29 -51 -8 -58 -16 -69 -32 -43 -27 46
-80 96 -101 96 -26 0 -35 -17 -35 -68 0 -28 -3 -33 -12 -24 -17 17 -58 15 -63
-3 -3 -8 -7 -21 -9 -29 -4 -12 -11 -12 -48 0 -63 21 -90 35 -120 63 -26 23
-29 24 -96 13 l-69 -12 -82 41 c-92 45 -124 47 -129 9 -2 -14 -14 -34 -27 -45
-14 -11 -35 -35 -48 -53 -13 -17 -50 -45 -82 -61 l-59 -30 -45 21 -45 20 24
20 c17 14 20 22 12 30 -6 6 -8 23 -5 39 7 35 -16 87 -41 95 -17 6 -18 13 -13
80 8 89 0 115 -71 220 -42 62 -39 95 19 226 23 51 53 136 66 188 17 66 32 101
47 115 49 42 60 120 31 202 -17 46 -47 113 -52 113 -10 0 -53 -53 -68 -85 -22
-46 -22 -96 -2 -144 13 -30 13 -40 -1 -80 -8 -25 -21 -55 -27 -66 -7 -11 -15
-45 -18 -76 -3 -34 -19 -85 -40 -130 -43 -89 -69 -185 -60 -219 8 -29 37 -81
70 -127 29 -37 24 -64 -17 -112 -17 -18 -30 -39 -30 -46 0 -25 -53 -59 -90
-57 -30 2 -37 -2 -48 -28 -8 -16 -10 -39 -7 -51 4 -13 1 -27 -9 -38 -15 -16
-14 -20 7 -52 29 -43 28 -102 -2 -130 -20 -19 -20 -22 -6 -49 14 -27 5 -44
-10 -20 -3 6 -28 10 -56 10 -53 0 -64 14 -24 32 28 12 50 60 46 101 -1 16 2
34 8 41 18 21 3 43 -40 60 -21 9 -39 20 -39 26 0 15 -33 12 -56 -5 -22 -16
-54 -20 -54 -5 0 5 10 35 21 67 23 61 44 93 63 93 20 0 84 59 101 93 34 65 44
116 35 175 -10 72 -42 164 -69 198 -25 32 -26 47 -6 77 27 42 16 132 -25 200
-12 21 -20 46 -17 57 3 11 -4 31 -15 45 l-20 26 -23 -27 c-43 -50 -61 -181
-38 -289 12 -60 30 -94 72 -140 17 -19 31 -40 31 -47 0 -7 9 -31 21 -52 21
-40 22 -86 4 -161 -8 -29 -53 -77 -130 -140 l-37 -29 -20 27 c-27 37 -91 37
-159 0 -27 -14 -52 -24 -55 -21 -7 8 -11 178 -4 178 8 0 37 -28 67 -64 43 -49
63 -34 87 65 21 88 16 125 -19 141 -14 6 -35 31 -47 56 -12 25 -30 54 -39 63
-18 18 -17 21 5 82 31 87 51 194 39 210 -20 24 -20 55 -1 93 13 28 17 50 13
76 -8 44 -53 107 -77 108 -10 0 -18 4 -18 9 0 5 -14 14 -30 21 -17 7 -38 22
-48 34 -18 23 -66 56 -80 56 -4 0 -13 -5 -20 -12z m123 -146 c-3 -8 0 -21 6
-28 13 -15 5 -44 -11 -44 -10 0 -29 38 -26 51 0 3 -5 13 -12 22 -20 24 -6 39
24 25 15 -7 23 -17 19 -26z m83 -74 c3 -22 -1 -28 -16 -28 -20 0 -32 18 -32
47 0 9 8 13 23 11 16 -2 23 -11 25 -30z m312 -258 c0 -5 -2 -10 -4 -10 -3 0
-8 5 -11 10 -3 6 -1 10 4 10 6 0 11 -4 11 -10z m3554 -108 c7 -11 -26 -51 -54
-65 -17 -9 -31 -32 -46 -76 -12 -35 -29 -70 -37 -78 -13 -13 -17 -9 -39 39
-14 29 -44 72 -66 96 -61 61 -57 66 44 58 64 -5 93 -3 117 8 59 26 74 30 81
18z m-3984 -106 c0 -8 -4 -17 -9 -20 -5 -4 -17 -31 -26 -61 -20 -63 -16 -99
20 -169 28 -56 34 -133 11 -142 -8 -3 -35 6 -59 20 -39 23 -46 25 -57 11 -10
-12 -10 -21 0 -45 7 -17 11 -32 9 -33 -66 -37 -72 -36 -64 11 5 34 25 231 27
277 2 28 85 153 106 158 32 9 42 7 42 -7z m88 -38 c16 -16 15 -50 -3 -74 -8
-10 -15 -40 -15 -66 0 -54 -12 -61 -32 -20 -17 34 -13 95 10 140 18 35 22 38
40 20z m4397 -117 c3 -5 -18 -33 -45 -61 -49 -48 -70 -56 -70 -25 0 7 -6 15
-13 18 -8 3 -23 21 -35 41 l-21 36 89 0 c49 0 91 -4 95 -9z m-4295 -32 c0 -31
-7 -32 -42 -1 -26 22 -22 32 12 32 27 0 30 -3 30 -31z m3160 -47 c0 -2 -11
-20 -25 -40 -14 -20 -25 -45 -25 -54 0 -22 -16 -24 -24 -3 -3 8 -16 20 -28 26
-62 27 -93 52 -85 66 5 8 187 13 187 5z m2260 -130 c0 -16 -8 -36 -18 -45 -16
-15 -21 -15 -65 1 -26 9 -47 20 -47 24 0 18 56 48 91 48 36 0 39 -2 39 -28z
m-446 -28 c27 -26 17 -74 -15 -74 -19 0 -98 49 -99 62 0 8 49 26 77 27 12 1
29 -6 37 -15z m-5581 -89 c-3 -9 -8 -14 -10 -11 -3 3 -2 9 2 15 9 16 15 13 8
-4z m5905 9 c28 -8 29 -34 1 -34 -19 0 -49 21 -49 34 0 8 19 7 48 0z m-5993
-74 c-3 -27 0 -52 5 -55 6 -3 10 -19 10 -36 0 -16 5 -29 11 -29 7 0 9 -11 5
-32 -13 -60 -12 -150 1 -155 7 -3 9 -17 6 -40 -4 -26 -3 -34 5 -29 7 4 12 15
12 25 0 26 25 44 49 36 12 -3 39 -27 60 -53 51 -60 94 -87 110 -69 8 10 4 32
-15 83 -20 56 -23 73 -13 88 9 16 8 22 -5 31 -23 17 -20 44 6 54 22 8 22 8 -5
26 -32 20 -36 45 -7 45 17 0 18 3 8 26 -15 31 3 47 44 40 15 -3 30 -1 33 4 10
16 35 12 35 -5 0 -9 -7 -26 -16 -40 -21 -32 -10 -95 17 -95 27 0 33 -19 14
-40 -13 -14 -15 -27 -10 -47 5 -15 7 -33 6 -39 0 -6 6 -17 14 -24 21 -17 19
-42 -5 -73 -17 -21 -18 -27 -6 -36 16 -14 25 -5 41 44 7 22 20 33 47 42 21 7
50 20 64 30 l26 17 -22 18 c-21 17 -22 21 -10 63 10 34 10 48 1 59 -7 8 -9 25
-6 39 5 18 2 28 -11 35 -25 14 -10 42 23 42 25 1 26 2 11 14 -38 28 -10 69 54
80 20 4 39 2 42 -3 3 -5 -1 -46 -8 -91 -8 -45 -12 -88 -9 -96 3 -8 0 -21 -7
-29 -7 -9 -11 -35 -10 -63 2 -26 2 -68 2 -93 -2 -43 2 -49 34 -74 19 -15 49
-28 66 -29 28 -2 29 -1 24 28 -5 24 -2 34 16 48 18 14 20 20 9 27 -17 11 -25
92 -10 102 6 3 10 31 10 63 0 60 14 72 45 41 9 -8 31 -15 49 -15 l34 0 0 -66
c0 -37 -5 -75 -12 -85 -9 -14 -9 -21 1 -31 22 -22 13 -52 -29 -96 -25 -25 -39
-48 -35 -57 10 -26 33 -16 60 26 18 27 42 47 72 60 54 22 73 24 99 6 31 -21
222 -80 234 -72 17 10 13 26 -11 53 -20 21 -21 25 -8 35 22 17 20 81 -2 85
-19 4 -24 27 -9 36 5 3 11 17 13 31 4 20 -1 30 -24 46 -35 25 -35 62 0 67 16
3 22 10 22 30 0 27 35 72 56 72 16 0 34 -53 34 -100 0 -20 6 -45 14 -55 10
-14 11 -26 3 -48 -8 -24 -7 -31 6 -38 21 -12 13 -80 -16 -136 -11 -23 -18 -45
-14 -49 3 -4 24 1 47 10 54 21 83 20 105 -4 12 -13 31 -20 56 -20 29 0 42 -6
58 -26 25 -32 26 -42 4 -66 -24 -27 -43 -22 -50 13 -6 30 -8 31 -44 25 -34 -6
-39 -4 -39 14 0 32 -43 26 -74 -11 -31 -37 -32 -50 -6 -74 16 -14 30 -17 70
-12 75 9 96 -2 103 -55 8 -61 -10 -78 -51 -48 -23 17 -37 21 -59 15 -48 -13
-86 -16 -92 -6 -3 5 -24 6 -46 2 -35 -6 -39 -9 -40 -35 0 -37 -22 -45 -31 -12
-3 14 -9 26 -13 27 -3 0 -20 2 -38 4 -21 3 -33 0 -37 -10 -9 -23 -35 -18 -48
10 -6 14 -19 25 -29 25 -9 0 -20 7 -23 16 -5 12 -14 15 -38 10 -22 -4 -34 -2
-43 11 -7 9 -25 16 -43 15 -24 0 -33 5 -38 21 l-7 22 -10 -23 c-7 -16 -15 -21
-26 -16 -9 4 -51 8 -93 9 -58 2 -78 -1 -82 -11 -8 -22 -36 -16 -45 9 -8 21 -9
20 -27 -15 -19 -42 -43 -49 -51 -17 -5 18 -7 18 -24 -10 -10 -17 -25 -31 -34
-31 -17 0 -35 30 -35 59 0 27 -18 27 -46 0 -17 -16 -26 -19 -42 -10 -11 6 -22
8 -25 5 -10 -11 -77 17 -77 32 0 8 -9 14 -20 14 -14 0 -20 7 -20 21 0 19 -3
19 -39 -10 -21 -17 -44 -31 -51 -31 -7 0 -24 -9 -39 -19 -15 -11 -43 -22 -64
-26 -36 -7 -37 -6 -37 21 0 22 -3 25 -12 16 -7 -7 -19 -12 -28 -12 -9 0 -31
-11 -50 -25 -41 -30 -64 -33 -57 -6 6 24 -25 32 -61 17 -16 -6 -26 -6 -34 2
-19 19 -57 14 -70 -8 -19 -29 -69 -26 -108 6 -29 25 -33 26 -57 13 -18 -10
-27 -11 -30 -3 -7 22 -71 -19 -77 -49 -12 -58 -58 -40 -83 34 -16 43 -17 76
-2 84 5 4 14 18 20 32 8 22 13 24 49 18 39 -7 40 -6 40 23 0 71 38 112 84 91
22 -10 28 -9 43 10 23 29 53 19 53 -18 0 -14 5 -33 10 -41 9 -13 13 -12 29 7
11 13 17 32 14 47 -7 33 28 53 64 37 13 -6 47 -11 76 -11 36 0 60 -6 77 -20
30 -23 44 -25 60 -6 9 12 5 19 -24 38 -39 25 -48 58 -16 58 21 0 29 33 10 45
-5 3 -8 28 -6 55 2 28 0 53 -5 56 -5 3 -9 19 -9 36 0 21 -6 31 -19 35 -11 3
-22 12 -26 21 -6 17 12 33 31 25 6 -2 15 0 19 6 3 6 16 11 28 11 12 0 33 9 47
20 14 11 26 20 27 20 1 0 0 -22 -2 -50z m405 30 c0 -5 -7 -10 -16 -10 -8 0
-12 5 -9 10 3 6 10 10 16 10 5 0 9 -4 9 -10z m5193 -7 c11 -10 -13 -33 -34
-33 -21 0 -22 1 -13 24 6 16 35 22 47 9z m-4823 -58 c0 -8 -7 -15 -15 -15 -26
0 -18 20 13 29 1 1 2 -6 2 -14z m1090 -12 c36 -24 38 -31 36 -87 -1 -47 -3
-51 -27 -54 -21 -2 -28 2 -33 23 -6 24 -9 25 -55 19 -43 -6 -49 -4 -54 15 -3
13 -13 21 -26 21 -32 0 -26 32 12 57 40 27 112 30 147 6z m825 -2 c3 -10 1
-30 -4 -45 -9 -22 -16 -26 -51 -26 -49 0 -53 20 -12 61 31 33 58 37 67 10z
m-562 -47 c16 -13 34 -24 42 -24 7 0 22 -16 34 -35 11 -19 16 -35 11 -35 -6 0
-10 5 -10 10 0 14 -57 13 -66 -1 -3 -6 -1 -16 5 -22 6 -6 11 -17 11 -23 0 -18
-61 -35 -104 -31 -25 3 -36 0 -36 -9 0 -7 5 -14 11 -16 18 -6 1 -46 -21 -53
-26 -8 -40 1 -40 26 0 15 -7 19 -35 19 -30 0 -35 -3 -35 -24 0 -28 -22 -49
-47 -44 -12 3 -17 11 -16 26 2 19 -2 22 -31 22 -30 0 -35 -3 -38 -27 -4 -36
-41 -40 -46 -5 -6 40 -62 14 -62 -29 0 -14 -3 -19 -8 -12 -4 6 -19 14 -34 18
-35 9 -62 49 -54 81 5 20 3 24 -15 24 -32 0 -20 38 23 73 36 29 38 29 71 14
18 -9 42 -32 52 -51 16 -29 22 -33 38 -24 10 5 34 7 52 4 19 -4 36 -2 39 3 3
5 26 12 50 15 32 5 52 15 69 36 13 15 38 35 55 44 38 19 40 29 10 48 -13 9
-18 19 -14 26 12 20 106 3 139 -24z m1165 -32 c2 -13 14 -28 28 -34 13 -6 24
-16 24 -21 0 -6 6 -18 13 -26 7 -9 18 -28 25 -43 9 -23 8 -30 -6 -44 -11 -12
-17 -34 -17 -70 0 -70 -15 -85 -55 -56 -55 41 -96 19 -47 -26 50 -47 152 -59
192 -22 25 24 73 27 81 5 4 -8 -1 -26 -9 -38 -41 -62 -8 -162 47 -141 9 3 19
-3 26 -16 10 -18 9 -30 -6 -61 -20 -45 -30 -48 -46 -14 -9 20 -14 22 -25 13
-20 -16 -63 6 -63 32 0 16 -5 19 -23 15 -15 -4 -32 1 -51 16 -25 20 -29 21
-37 6 -7 -12 -21 -15 -54 -13 -25 1 -45 -1 -45 -5 0 -10 -78 -5 -102 5 -10 5
-18 14 -18 21 0 6 -9 20 -21 31 -20 18 -21 18 -34 0 -10 -13 -21 -17 -37 -13
-20 5 -26 1 -35 -23 -13 -34 -32 -39 -40 -11 -11 42 -83 33 -83 -10 0 -20 -20
-25 -36 -9 -5 5 -27 18 -49 29 l-40 19 -24 -26 c-20 -22 -25 -24 -35 -11 -6 8
-28 14 -48 15 -33 0 -37 -2 -32 -21 6 -24 -15 -48 -33 -37 -6 4 -12 16 -14 27
-3 15 -13 21 -42 23 -25 2 -37 -1 -37 -10 0 -7 -5 -20 -10 -28 -8 -12 -12 -11
-32 7 -34 30 -62 43 -85 37 -12 -3 -24 -1 -27 5 -5 7 -13 7 -26 -1 -16 -10
-24 -9 -49 9 -31 24 -42 19 -55 -24 -4 -13 -14 -23 -22 -23 -8 0 -13 -4 -10
-9 4 -6 -5 -6 -21 -2 -16 5 -36 3 -46 -3 -14 -9 -21 -7 -30 5 -7 9 -18 14 -25
11 -7 -2 -19 4 -26 14 -13 17 -15 17 -31 1 -17 -17 -26 -16 -57 10 -15 13 -18
12 -33 -16 -14 -29 -45 -43 -45 -21 0 15 -53 60 -72 60 -11 0 -20 -11 -24 -27
-11 -45 -30 -52 -62 -24 -31 26 -27 36 16 49 24 7 44 22 55 42 21 35 37 38 61
11 32 -35 84 -35 182 -2 50 18 120 33 159 36 38 3 94 9 125 13 30 5 78 8 107
7 36 -1 54 3 57 12 3 7 12 13 19 13 20 0 46 32 57 70 8 28 5 41 -16 80 -25 47
-25 48 -9 81 23 45 35 51 62 34 12 -8 34 -15 48 -15 25 0 26 2 20 31 -7 31 -6
31 24 27 26 -4 30 -2 26 13 -8 23 11 59 30 59 9 0 15 -10 15 -24 0 -29 16 -42
34 -27 7 6 39 12 72 13 55 3 59 2 62 -21 3 -21 7 -23 47 -17 51 8 69 -8 37
-33 -19 -15 -20 -24 -17 -108 3 -83 1 -93 -15 -93 -9 0 -29 9 -43 20 -14 11
-35 20 -46 20 -22 0 -28 -14 -11 -25 18 -11 10 -36 -20 -64 l-30 -27 22 -21
c13 -11 41 -24 63 -28 36 -6 41 -4 65 24 14 17 50 43 80 59 l55 28 -1 85 c0
46 -3 108 -7 137 -7 48 -6 52 13 52 16 0 20 6 18 32 -3 38 20 49 46 23 14 -14
16 -14 16 -1 0 10 13 16 38 19 64 7 77 4 80 -21z m-3203 -22 c3 -5 1 -10 -4
-10 -6 0 -11 5 -11 10 0 6 2 10 4 10 3 0 8 -4 11 -10z m2338 -1 c33 0 45 -23
25 -47 -8 -9 -18 -25 -21 -34 -4 -11 -17 -18 -32 -18 -18 0 -31 -11 -50 -40
-16 -25 -30 -37 -39 -34 -29 11 -53 -14 -61 -62 -10 -69 -14 -74 -51 -74 -20
0 -37 -6 -42 -16 -7 -13 -17 -15 -38 -10 -53 12 -58 11 -70 -13 -24 -46 -54
-49 -54 -5 0 19 -5 24 -24 24 -29 0 -40 -15 -41 -55 0 -20 -6 -31 -17 -33 -13
-3 -18 3 -18 21 0 13 -9 32 -20 42 -18 17 -22 17 -37 2 -11 -9 -28 -13 -44
-10 -22 4 -29 0 -41 -23 -15 -32 -48 -45 -48 -20 0 10 -9 16 -25 16 -18 0 -25
5 -25 19 0 11 5 23 11 26 5 4 14 18 19 31 7 18 17 24 39 24 20 0 39 9 56 28
20 21 35 27 73 29 98 3 163 16 215 44 28 16 63 34 77 40 14 6 32 15 40 20 8 5
40 21 70 35 69 34 63 28 62 70 l-1 36 42 -6 c23 -4 55 -7 70 -7z m2757 -55 c0
-20 -61 -94 -77 -94 -7 0 -13 5 -13 10 0 21 -39 10 -42 -12 -2 -15 -19 -31
-50 -47 -36 -19 -48 -31 -48 -48 0 -20 -5 -23 -40 -23 -45 0 -62 -20 -37 -45
29 -28 137 -15 137 16 0 12 11 23 28 29 63 23 71 31 74 74 3 37 6 41 33 44 19
3 33 -2 41 -13 7 -9 17 -14 22 -11 15 9 42 -4 42 -19 0 -9 10 -13 28 -12 26 2
27 0 30 -49 2 -27 -2 -63 -8 -78 -9 -23 -14 -27 -33 -21 -12 4 -40 9 -62 10
-22 1 -50 5 -63 9 -27 9 -41 -16 -22 -39 16 -19 6 -45 -18 -45 -11 0 -30 9
-44 19 -35 28 -68 18 -68 -20 0 -39 -27 -50 -51 -21 -9 12 -27 22 -39 22 -34
0 -21 -32 23 -53 50 -25 50 -52 0 -60 -29 -5 -39 -2 -50 13 -19 27 -47 25 -61
-4 -13 -29 -60 -40 -83 -20 -17 15 -39 2 -39 -23 0 -16 -61 -18 -76 -3 -15 15
-41 3 -47 -21 -9 -34 -38 -35 -66 -2 -37 44 -68 51 -80 20 -14 -36 -28 -41
-48 -17 -10 11 -23 20 -31 20 -16 0 -82 70 -82 88 0 6 -11 12 -25 12 -14 0
-25 -2 -25 -5 0 -8 42 -67 56 -80 19 -18 23 -43 8 -55 -16 -14 -56 6 -89 47
-19 23 -22 24 -34 9 -16 -20 -45 -21 -60 -2 -6 7 -25 16 -41 20 -27 5 -30 9
-30 46 0 47 -24 56 -35 13 -10 -42 -25 -55 -55 -48 -23 5 -31 0 -51 -29 -23
-34 -59 -49 -59 -25 0 7 -13 8 -39 4 -30 -5 -40 -3 -44 9 -8 21 1 43 21 50 39
14 128 67 145 87 24 30 21 66 -8 94 -28 29 -85 34 -105 10 -10 -12 -8 -16 13
-24 26 -10 37 -29 37 -67 0 -30 -29 -33 -54 -5 -19 21 -56 17 -56 -5 0 -23
-29 -28 -49 -10 -18 16 -19 16 -25 -7 -6 -27 -35 -44 -41 -24 -2 6 -6 25 -10
41 -5 22 -9 26 -18 17 -34 -34 -72 16 -40 52 14 15 15 22 5 37 -7 11 -12 22
-12 24 0 13 36 37 70 46 47 13 52 35 15 70 -14 13 -25 32 -25 43 0 17 5 19 36
14 25 -4 37 -2 40 8 13 32 64 27 64 -6 0 -22 38 -27 45 -6 4 9 36 12 123 10
64 -1 135 -2 158 -2 46 0 68 -19 79 -68 10 -47 28 -41 50 17 14 35 25 50 38
50 10 0 27 5 38 11 30 16 50 -6 47 -50 -4 -51 22 -48 36 4 9 29 17 41 34 43
14 2 22 -2 22 -11 0 -8 6 -20 14 -26 12 -10 18 -7 31 18 14 29 45 43 45 22 0
-10 39 -35 73 -47 13 -5 17 -15 15 -38 -3 -26 -7 -31 -30 -31 -14 0 -30 -3
-34 -7 -12 -13 -44 -9 -45 5 0 10 -2 10 -6 0 -6 -17 -28 -16 -43 2 -16 19 -27
12 -45 -31 -15 -37 -26 -42 -49 -19 -18 19 -36 19 -36 2 0 -21 -37 -50 -55
-43 -8 3 -20 17 -25 31 -10 27 -30 34 -30 10 0 -26 26 -79 48 -99 21 -18 22
-18 68 13 26 17 55 31 64 31 10 0 23 7 31 16 9 11 24 14 48 11 39 -4 91 9 91
24 0 5 26 22 58 37 64 31 69 49 31 103 -17 24 -18 33 -9 44 17 21 28 19 73
-12 35 -25 40 -26 48 -10 12 21 64 22 102 2 15 -8 43 -17 60 -20 29 -6 35 -3
45 19 11 25 52 37 52 16 0 -5 7 -10 15 -10 8 0 15 6 15 13 0 23 68 54 123 56
18 1 27 -4 27 -15z m125 -28 c22 -8 40 -19 39 -25 -1 -6 -2 -16 -2 -22 -1 -6
-21 -9 -48 -7 -54 3 -77 26 -55 52 16 19 16 19 66 2z m155 -6 c0 -5 -5 -10
-11 -10 -5 0 -7 5 -4 10 3 6 8 10 11 10 2 0 4 -4 4 -10z m128 -40 c-3 -21 0
-30 9 -30 8 0 16 -8 20 -17 3 -10 14 -26 24 -36 11 -10 22 -30 25 -45 10 -40
23 -53 49 -46 19 5 24 1 27 -18 2 -12 13 -27 25 -33 28 -12 38 -55 23 -99 -9
-28 -17 -35 -46 -41 -20 -3 -37 -5 -38 -3 0 2 -11 17 -24 35 -12 18 -22 41
-22 53 0 11 -5 20 -11 20 -5 0 -15 14 -21 31 -6 17 -27 41 -49 55 -22 13 -39
29 -39 34 0 20 -69 10 -96 -13 -29 -25 -28 -62 1 -51 27 11 65 -5 65 -26 0
-15 9 -22 31 -27 26 -5 30 -9 25 -29 -5 -17 0 -29 14 -41 25 -21 26 -53 3 -54
-11 0 -13 -3 -5 -6 16 -6 15 -32 -2 -39 -7 -3 -30 2 -51 10 -21 9 -50 16 -66
16 -17 0 -37 9 -46 20 -10 11 -25 20 -35 20 -18 0 -23 27 -18 121 2 45 35 178
48 191 5 5 19 5 34 -1 15 -5 30 -6 39 0 23 14 29 11 29 -16 0 -14 4 -25 9 -25
20 0 22 21 5 49 -17 29 -17 30 7 50 13 11 32 20 43 21 15 0 17 -6 14 -30z
m-2050 -29 c24 -15 10 -46 -22 -49 -23 -3 -28 0 -22 13 3 9 6 23 6 31 0 16 18
18 38 5z m-1060 -53 c18 -18 15 -46 -8 -71 -15 -15 -32 -21 -66 -22 -41 0 -44
2 -39 20 4 11 9 31 12 45 3 14 11 28 17 32 17 12 71 9 84 -4z m-3219 -104 c16
-21 18 -30 10 -46 -6 -11 -8 -40 -4 -66 5 -39 1 -56 -22 -102 -34 -67 -65 -78
-81 -31 -8 23 -17 31 -35 31 -32 0 -45 17 -56 76 -8 40 -6 55 10 86 17 34 24
38 52 36 38 -2 57 7 57 28 0 24 47 16 69 -12z m6636 -3 c-3 -6 -11 -11 -17
-11 -6 0 -6 6 2 15 14 17 26 13 15 -4z m-6921 -43 c9 -17 16 -41 16 -53 0 -11
4 -25 9 -30 5 -6 12 -26 16 -45 8 -50 -24 -100 -64 -100 -34 0 -55 22 -48 50
3 11 -2 25 -10 32 -18 15 -14 119 6 156 18 34 56 29 75 -10z m7019 -15 c17 -3
33 -16 39 -29 6 -13 17 -24 24 -24 7 0 18 -8 23 -19 7 -12 18 -17 34 -14 28 6
56 -22 39 -39 -6 -6 -30 -14 -53 -18 -35 -7 -49 -5 -71 11 -18 13 -29 16 -33
9 -4 -6 -4 -14 -1 -17 13 -13 -18 -33 -51 -33 -35 0 -83 25 -83 42 0 6 16 25
35 42 25 24 35 41 37 69 2 29 6 36 18 32 8 -4 28 -9 43 -12z m-700 -20 c3 -10
8 -39 12 -65 6 -45 5 -47 -27 -61 -42 -19 -98 -21 -98 -5 0 8 -5 7 -16 -4 -15
-14 -20 -15 -52 -1 -33 14 -37 13 -51 -5 -22 -27 -91 -29 -91 -3 0 35 12 51
36 51 14 0 35 6 47 14 12 8 41 17 64 21 22 3 49 15 59 26 9 10 24 19 33 19 9
0 25 7 35 15 26 20 44 19 49 -2z m957 -97 c0 -3 -4 -8 -10 -11 -5 -3 -10 -1
-10 4 0 6 5 11 10 11 6 0 10 -2 10 -4z m-580 -16 c0 -5 -4 -10 -9 -10 -6 0
-13 5 -16 10 -3 6 1 10 9 10 9 0 16 -4 16 -10z m-6860 -32 c11 -12 20 -27 20
-34 0 -16 -28 -26 -52 -18 -20 6 -42 49 -32 65 10 16 43 10 64 -13z m1374 -13
c43 -21 57 -23 85 -15 28 8 38 6 59 -10 29 -23 65 -26 81 -6 16 19 76 10 112
-16 33 -25 73 -16 101 23 20 27 24 28 92 25 40 -1 81 -9 93 -16 20 -13 27 -12
57 4 l34 18 50 -35 c28 -19 67 -38 88 -41 20 -4 47 -14 60 -23 30 -19 147 -27
191 -12 22 7 33 17 33 29 0 28 13 31 65 14 37 -13 55 -14 83 -6 97 28 145 33
162 17 14 -13 27 -13 103 -1 77 13 91 13 117 -1 27 -13 34 -13 53 0 28 18 95
29 102 16 4 -5 28 -9 55 -9 46 0 50 -2 64 -32 8 -18 17 -43 21 -55 15 -53 85
-1 85 63 l0 34 40 -6 c25 -4 45 -2 54 5 16 13 56 -1 56 -19 0 -6 10 -10 23
-10 12 0 33 -9 47 -20 32 -25 56 -25 77 0 13 15 25 19 49 14 21 -4 36 -1 47
10 25 25 54 19 74 -14 9 -16 22 -30 29 -30 22 0 74 32 85 53 l12 21 17 -22
c24 -29 54 -28 68 3 10 23 16 25 51 19 24 -4 41 -2 45 5 10 16 36 14 36 -2 0
-22 56 -94 78 -99 23 -6 82 17 82 32 0 8 17 9 53 5 42 -5 57 -3 70 9 8 9 21
16 28 16 22 0 59 -42 59 -67 0 -13 6 -23 13 -24 31 -3 64 4 85 18 16 10 36 12
62 8 26 -4 48 -1 69 9 36 19 96 13 151 -15 19 -9 55 -20 79 -24 41 -7 47 -5
67 21 22 27 24 27 63 14 26 -8 59 -11 96 -6 34 4 64 2 76 -5 14 -7 25 -7 31
-1 5 5 27 8 47 5 24 -3 49 1 68 10 28 15 32 14 63 -4 18 -12 47 -21 64 -21 57
1 174 27 193 43 29 27 145 37 248 23 37 -5 57 -2 81 11 28 15 46 16 140 8 87
-7 116 -6 146 5 53 21 97 9 128 -33 36 -50 85 -63 136 -37 21 11 47 30 56 41
25 29 108 29 163 0 44 -24 101 -21 161 7 28 13 40 14 60 5 14 -6 38 -11 54
-11 40 0 67 -53 52 -102 -6 -18 -7 -53 -4 -78 6 -37 11 -46 30 -48 28 -4 28
-6 -3 -46 -14 -18 -25 -36 -25 -40 0 -3 -11 -23 -24 -44 -53 -80 -85 -206
-111 -437 -32 -277 -35 -738 -7 -825 7 -19 18 -102 26 -185 14 -137 40 -258
64 -288 5 -7 14 -39 21 -72 13 -60 17 -75 65 -232 33 -108 78 -201 153 -321
23 -36 69 -74 114 -92 40 -17 32 -33 -22 -43 -42 -9 -79 -4 -197 25 -25 7 -86
9 -145 5 -85 -5 -110 -10 -149 -32 -26 -15 -50 -31 -53 -36 -10 -14 -41 -11
-82 10 -21 10 -69 22 -107 25 -38 4 -82 14 -99 23 -26 13 -54 15 -167 10 -74
-3 -151 -11 -170 -17 -126 -38 -391 -57 -439 -31 -18 10 -93 14 -285 17 -170
2 -305 9 -387 20 l-126 17 -129 -27 c-133 -28 -333 -66 -439 -84 -33 -5 -84
-7 -113 -5 -44 5 -59 2 -82 -16 -16 -11 -36 -21 -44 -21 -19 0 -46 -61 -46
-101 0 -15 -5 -31 -11 -35 -13 -8 -7 -60 16 -137 21 -69 20 -71 -63 -81 -77
-9 -275 -55 -286 -67 -18 -17 -41 -9 -63 24 -13 18 -23 40 -23 49 0 9 -7 21
-15 28 -8 7 -15 18 -15 25 0 7 -22 46 -50 86 -27 41 -50 79 -50 85 0 16 -81
89 -121 110 -66 34 -159 51 -254 46 -95 -4 -103 -2 -194 48 -78 44 -195 57
-354 42 -176 -17 -343 2 -378 44 -6 8 -20 14 -30 14 -10 0 -21 5 -24 10 -9 14
-119 12 -195 -4 -36 -7 -101 -29 -145 -47 l-80 -33 -185 -1 c-102 0 -265 3
-363 7 -185 8 -264 -1 -346 -38 -37 -18 -115 -12 -141 11 -8 7 -43 27 -76 44
-56 28 -70 31 -155 31 -93 0 -141 -10 -244 -50 -27 -10 -81 -31 -120 -45 -38
-15 -115 -37 -170 -50 -55 -13 -129 -30 -165 -38 -133 -31 -187 -40 -259 -45
-101 -5 -155 4 -190 34 -16 13 -38 24 -49 24 -36 0 -146 134 -202 244 -27 55
-50 105 -50 111 0 7 -7 18 -15 25 -8 7 -15 21 -15 31 0 10 -7 40 -17 66 -9 26
-22 82 -29 123 -22 126 -26 145 -37 158 -14 17 -28 113 -32 215 -2 43 -8 84
-13 90 -17 21 -13 169 7 272 11 55 22 126 26 159 4 32 13 79 20 105 8 25 21
93 30 151 14 96 44 196 68 227 6 9 15 10 27 3 31 -16 48 -11 62 18 8 15 19 36
25 47 25 47 44 104 53 165 5 36 16 97 25 135 9 39 18 82 22 98 4 18 14 29 30
34 19 4 33 22 54 68 16 34 41 73 55 86 15 13 41 48 60 77 26 39 40 52 58 52
16 0 27 -7 31 -20 3 -11 13 -20 21 -20 7 0 19 9 26 20 8 12 24 20 40 20 32 0
95 69 112 122 10 31 15 33 66 40 42 5 57 3 63 -8 10 -18 38 -18 63 1 10 8 30
15 44 15 14 0 35 7 47 15 18 13 22 13 33 0 17 -20 32 -19 65 7 28 22 28 22 44
2 9 -11 24 -23 33 -26 24 -9 73 17 102 55 24 30 26 30 44 14 27 -25 49 -21 81
14 24 26 34 30 58 25 25 -6 33 -3 47 19 21 33 32 32 44 -4 10 -28 13 -30 64
-29 29 1 63 7 74 15 28 18 72 -1 80 -34 7 -28 35 -45 53 -33 8 4 25 30 40 56
29 55 61 66 71 25 3 -13 13 -29 23 -35 14 -9 22 -6 41 15 18 19 31 25 50 22
17 -4 28 1 38 16 17 27 30 26 92 -4z m6106 -15 c0 -4 25 -20 55 -35 30 -16 55
-33 55 -38 0 -6 7 -18 16 -28 14 -16 13 -21 -12 -59 -22 -33 -32 -40 -48 -35
-12 4 -31 9 -43 12 -13 3 -23 9 -23 14 0 16 -44 28 -59 16 -10 -9 -19 -4 -40
19 -14 17 -38 36 -53 42 -20 8 -28 19 -28 37 0 22 4 25 35 25 25 0 35 4 35 15
0 24 58 45 87 32 13 -5 23 -13 23 -17z m-2580 5 c0 -8 -4 -15 -9 -15 -13 0
-22 16 -14 24 11 11 23 6 23 -9z m-5028 -28 c23 -8 13 -76 -20 -134 -23 -41
-25 -43 -42 -28 -16 15 -22 15 -62 2 -74 -26 -94 -38 -111 -67 -10 -15 -33
-47 -52 -70 -19 -23 -35 -47 -35 -54 0 -21 -48 -59 -65 -52 -28 10 -73 -21
-80 -56 -4 -18 -13 -40 -20 -48 -7 -8 -16 -35 -20 -60 -3 -25 -14 -61 -23 -80
-21 -46 -35 -131 -33 -203 1 -32 -3 -65 -9 -72 -19 -23 -78 -30 -98 -12 -9 8
-28 18 -41 22 -21 6 -23 11 -17 48 4 23 14 45 21 50 8 4 15 15 15 23 0 8 20
48 45 88 25 41 45 77 45 81 0 3 23 53 50 110 28 57 50 108 50 113 0 6 7 12 15
16 8 3 15 15 15 26 0 31 122 150 183 180 55 27 106 88 107 127 0 37 121 92
150 68 8 -7 22 -15 32 -18z m7777 -226 c23 -22 31 -38 31 -63 0 -25 8 -42 30
-63 27 -26 30 -35 30 -92 0 -56 -2 -63 -19 -63 -29 0 -76 66 -73 101 2 21 -6
38 -29 60 -32 31 -49 74 -49 121 0 23 4 28 24 28 13 0 38 -13 55 -29z m-203
-50 c-8 -13 60 -62 76 -56 8 3 24 -8 37 -26 l24 -32 -24 -18 c-67 -51 -82 -65
-105 -101 -31 -48 -60 -143 -69 -223 -3 -33 -12 -113 -20 -177 -8 -64 -15
-152 -15 -195 -1 -43 -6 -103 -11 -133 -18 -111 -20 -127 -24 -210 -3 -80 11
-277 23 -310 3 -8 4 -18 4 -23 -1 -4 3 -28 9 -55 6 -26 15 -101 20 -166 9
-126 10 -127 58 -279 36 -111 64 -176 90 -204 10 -10 24 -29 30 -41 9 -18 21
-22 57 -22 51 0 84 14 84 35 0 10 -10 15 -31 15 -17 0 -39 5 -50 11 -26 13
-79 98 -107 169 -32 82 -73 265 -79 350 -4 66 -3 73 10 60 23 -24 97 -179 97
-204 0 -7 6 -19 14 -25 8 -7 18 -26 21 -42 9 -39 49 -69 95 -69 53 0 112 57
134 129 21 73 21 150 0 158 -21 8 -34 -13 -34 -54 0 -56 -38 -142 -70 -158
-53 -27 -58 -22 -121 113 -33 70 -74 156 -91 191 -23 49 -29 73 -25 103 3 22
0 43 -6 51 -12 12 -13 22 -17 132 -2 62 -12 75 -41 49 -10 -9 -22 -14 -26 -11
-3 4 5 103 19 220 15 116 26 221 27 232 1 73 24 282 32 289 5 6 9 25 9 42 0
51 22 135 50 189 l25 50 48 -3 c39 -3 47 -1 47 13 0 14 3 15 15 5 8 -7 15 -22
15 -34 0 -12 9 -38 19 -59 15 -30 18 -56 17 -134 -1 -54 2 -104 7 -110 15 -21
36 -15 43 12 6 24 8 25 24 10 18 -16 50 -11 50 9 1 6 2 48 3 93 2 88 8 103 35
87 16 -10 39 -63 92 -214 12 -36 28 -82 36 -102 37 -100 50 -215 45 -386 -1
-35 3 -69 9 -76 5 -8 13 -74 15 -147 8 -198 12 -246 25 -268 7 -14 8 -27 1
-40 -6 -10 -8 -21 -4 -24 10 -11 -7 -55 -23 -59 -14 -3 -13 -7 5 -29 11 -15
18 -28 16 -31 -5 -4 -34 -198 -35 -224 0 -6 -10 -23 -21 -38 -15 -19 -23 -46
-26 -89 -3 -48 -16 -88 -55 -172 -50 -108 -125 -236 -147 -250 -41 -25 -175
-21 -215 7 -85 58 -162 168 -181 258 -4 19 -16 51 -26 71 -40 81 -100 339 -87
384 5 18 4 40 -2 55 -15 37 -36 264 -44 475 -2 61 -9 139 -15 175 -14 76 -39
403 -34 440 2 14 7 57 12 95 7 63 26 137 52 203 5 13 9 34 9 47 0 13 5 27 10
30 6 3 10 17 10 31 0 13 10 41 23 62 24 39 42 76 50 103 3 9 25 30 49 47 44
31 64 39 54 23z m91 -33 c-3 -8 -6 -5 -6 6 -1 11 2 17 5 13 3 -3 4 -12 1 -19z
m233 -288 c0 -5 -4 -10 -10 -10 -5 0 -10 5 -10 10 0 6 5 10 10 10 6 0 10 -4
10 -10z m-393 -992 c-3 -8 -6 -5 -6 6 -1 11 2 17 5 13 3 -3 4 -12 1 -19z
m-3167 -2017 c-26 -15 -90 -24 -90 -13 0 6 19 13 43 15 23 2 47 4 52 5 6 1 3
-3 -5 -7z"/>
<path d="M5565 4870 c-3 -5 2 -17 12 -25 25 -21 24 -108 -1 -113 -44 -9 0 -52
61 -59 37 -4 53 16 53 65 0 16 7 35 15 42 22 18 19 31 -14 68 -25 27 -37 32
-75 32 -25 0 -48 -4 -51 -10z"/>
<path d="M7744 4763 c-12 -40 -22 -48 -52 -45 -23 2 -34 -2 -42 -17 -17 -34
-49 -45 -69 -27 -26 24 -31 20 -31 -24 0 -44 -19 -54 -42 -22 -17 25 -58 35
-65 16 -5 -14 29 -76 59 -106 13 -13 19 -14 25 -5 13 19 78 49 100 45 13 -2
32 9 52 31 18 20 37 31 46 27 8 -3 29 0 46 6 29 10 31 13 25 49 -12 78 -39
114 -52 72z"/>
<path d="M4000 3789 c-146 -29 -280 -169 -280 -294 0 -59 47 -131 142 -218 87
-80 138 -146 138 -181 0 -30 -30 -75 -60 -91 -37 -19 -133 -19 -170 0 -27 14
-30 14 -50 -12 -15 -19 -20 -38 -18 -66 4 -58 39 -81 120 -81 124 1 237 64
291 161 67 125 42 201 -119 358 -57 55 -108 113 -114 130 -16 42 -5 87 30 120
26 25 40 30 95 33 35 2 78 -1 95 -6 29 -11 32 -9 50 21 39 63 21 112 -45 127
-46 11 -45 11 -105 -1z"/>
<path d="M4822 3789 c-77 -12 -181 -50 -243 -89 -72 -47 -166 -151 -199 -222
-126 -272 5 -546 300 -623 88 -24 265 -24 342 -2 109 33 143 85 158 244 19
203 -20 269 -131 222 -54 -24 -58 -35 -34 -92 10 -24 15 -70 15 -131 0 -122 1
-121 -175 -121 -120 0 -134 2 -185 26 -71 34 -117 80 -148 149 -21 45 -25 69
-25 141 0 78 3 95 31 152 38 77 101 138 180 175 50 24 69 27 162 27 58 0 114
-2 125 -5 16 -4 22 3 34 36 16 47 9 89 -18 104 -29 15 -119 20 -189 9z"/>
<path d="M7500 3784 c-33 -9 -122 -13 -330 -12 -157 0 -293 -3 -303 -7 -37
-15 -41 -72 -8 -133 10 -19 13 -19 57 -6 26 8 87 14 137 14 l89 0 -3 -375 c-4
-424 -7 -411 72 -409 56 2 122 33 113 53 -24 61 -28 103 -32 404 l-4 328 129
-3 c108 -2 134 0 155 14 34 22 43 66 24 112 -16 40 -24 41 -96 20z"/>
<path d="M8170 3791 c-122 -17 -225 -68 -305 -152 -173 -181 -176 -483 -6
-662 91 -96 206 -141 356 -140 205 2 374 108 461 286 128 267 12 565 -254 647
-70 22 -179 31 -252 21z m220 -158 c54 -24 113 -80 140 -132 10 -21 24 -68 30
-105 29 -164 -48 -329 -186 -397 -42 -21 -63 -24 -154 -24 -99 0 -108 2 -160
31 -67 38 -125 110 -146 183 -21 69 -20 193 2 257 30 91 110 172 197 200 63
21 220 13 277 -13z"/>
<path d="M1485 3773 c-11 -2 -30 -12 -43 -21 -23 -18 -23 -20 -11 -88 26 -149
-8 -498 -66 -683 -15 -45 -25 -84 -23 -86 2 -1 18 -10 37 -20 47 -24 97 -24
121 1 24 23 34 117 46 412 4 100 10 185 14 187 4 2 71 -122 149 -276 153 -299
171 -325 215 -296 15 10 75 116 166 294 78 153 145 282 150 286 8 9 14 -67 30
-368 6 -104 16 -202 21 -217 20 -50 107 -56 174 -12 l21 14 -27 82 c-65 196
-97 585 -59 719 9 32 -7 52 -57 70 -35 12 -73 -2 -107 -40 -10 -11 -85 -150
-165 -308 -81 -157 -151 -288 -158 -290 -6 -2 -66 104 -133 237 -134 264 -197
368 -240 393 -15 10 -30 16 -32 16 -1 -1 -12 -4 -23 -6z"/>
<path d="M2737 3764 c-26 -8 -50 -21 -53 -27 -2 -7 3 -31 13 -53 15 -34 18
-73 18 -304 1 -334 15 -396 107 -474 56 -49 130 -69 243 -69 192 1 300 78 359
254 36 109 48 225 44 432 -3 200 -10 227 -66 248 -29 11 -110 -13 -118 -36 -3
-7 5 -41 18 -76 21 -58 23 -81 23 -264 0 -231 -12 -289 -71 -355 -49 -54 -104
-73 -198 -68 -114 5 -156 44 -182 168 -13 63 -15 116 -9 330 7 240 6 257 -11
277 -26 30 -60 35 -117 17z"/>
<path d="M5457 3764 c-26 -8 -50 -21 -53 -27 -2 -7 3 -31 13 -53 15 -34 18
-73 18 -304 1 -334 15 -396 107 -474 56 -49 130 -69 243 -69 192 1 300 78 359
254 36 109 48 225 44 432 -3 200 -10 227 -66 248 -29 11 -110 -13 -118 -36 -3
-7 5 -41 18 -76 21 -59 23 -80 23 -269 0 -188 -2 -210 -23 -264 -43 -115 -116
-161 -246 -154 -114 5 -156 44 -182 168 -13 63 -15 116 -9 330 7 240 6 257
-11 277 -26 30 -60 35 -117 17z"/>
<path d="M6515 3762 c-56 -19 -55 -17 -35 -115 12 -63 17 -279 12 -562 -2 -99
0 -188 4 -198 11 -29 48 -38 104 -26 57 12 84 34 74 58 -25 60 -28 110 -28
453 -1 398 0 390 -56 402 -14 3 -47 -2 -75 -12z"/>
<path d="M4687 2633 c-12 -3 -16 -10 -12 -21 3 -8 8 -41 12 -73 l6 -58 -49 5
c-68 8 -123 -9 -164 -51 -31 -32 -35 -42 -38 -103 -4 -81 18 -125 76 -149 39
-16 127 -12 146 7 15 15 26 12 26 -6 0 -13 7 -15 36 -11 20 3 38 8 40 10 2 2
-1 21 -8 43 -7 25 -9 103 -6 214 3 96 3 181 1 188 -5 12 -31 14 -66 5z m-23
-203 c23 -8 26 -15 26 -59 0 -81 -10 -111 -44 -132 -57 -34 -115 -16 -135 43
-34 98 56 185 153 148z"/>
<path d="M5615 2604 c-19 -20 -16 -53 6 -67 24 -15 66 -1 72 25 13 49 -41 78
-78 42z"/>
<path d="M7798 2490 c-73 -22 -108 -72 -108 -155 0 -76 24 -119 83 -145 108
-49 228 3 257 111 35 131 -89 232 -232 189z m113 -56 c29 -15 59 -65 59 -100
0 -53 -59 -114 -110 -114 -82 0 -137 114 -87 180 37 49 87 61 138 34z"/>
<path d="M2254 2479 c-34 -10 -47 -29 -38 -54 8 -19 23 -19 48 0 27 21 79 19
99 -3 27 -29 20 -42 -20 -42 -97 0 -153 -41 -153 -111 0 -75 79 -119 161 -90
23 8 36 8 45 0 8 -6 26 -8 44 -4 24 5 30 11 24 23 -14 36 -22 99 -17 143 8 68
-12 118 -53 135 -37 16 -93 17 -140 3z m126 -188 c0 -46 -26 -71 -72 -71 -36
0 -64 40 -49 69 16 28 40 40 84 41 37 0 37 0 37 -39z"/>
<path d="M3304 2459 c3 -17 6 -87 6 -156 0 -133 4 -142 53 -129 22 5 22 8 19
120 l-4 115 35 17 c42 20 82 13 98 -17 6 -12 10 -65 10 -124 -1 -64 3 -106 10
-110 5 -4 26 -4 45 0 29 5 34 9 28 23 -4 9 -10 63 -13 119 -5 82 -10 107 -27
130 -28 38 -81 51 -141 35 -32 -9 -49 -10 -57 -2 -5 5 -23 10 -39 10 -28 0
-29 -2 -23 -31z"/>
<path d="M5612 2482 c-10 -7 -11 -19 -3 -52 5 -24 7 -89 4 -145 -7 -114 -3
-121 53 -110 29 5 34 9 27 23 -4 9 -8 78 -8 152 l0 135 -30 3 c-16 1 -36 -2
-43 -6z"/>
<path d="M6554 2459 c3 -17 6 -87 6 -156 0 -133 4 -142 53 -129 22 5 22 8 19
120 l-4 115 35 17 c42 20 82 13 98 -17 6 -12 10 -65 10 -124 -1 -64 3 -106 10
-110 5 -4 26 -4 45 0 29 5 34 9 28 23 -4 9 -10 63 -13 119 -5 82 -10 107 -27
130 -28 38 -81 51 -141 35 -32 -9 -49 -10 -57 -2 -5 5 -23 10 -39 10 -28 0
-29 -2 -23 -31z"/>
<path d="M9583 3534 c-6 -17 2 -54 51 -234 15 -52 30 -117 35 -145 5 -27 14
-62 20 -77 20 -53 31 -300 19 -423 -10 -104 -62 -319 -89 -367 -5 -10 -9 -24
-9 -31 0 -8 -14 -56 -30 -108 -17 -51 -28 -99 -26 -106 9 -23 27 -14 41 20 8
19 21 39 30 47 38 31 110 251 102 311 -3 21 -1 42 4 45 5 3 9 22 9 43 0 21 3
41 7 44 26 26 20 530 -7 579 -6 11 -6 19 0 23 6 4 7 13 1 23 -5 9 -17 49 -26
87 -10 39 -21 74 -26 80 -5 5 -9 16 -9 25 0 8 -6 26 -13 40 -8 14 -20 47 -28
74 -15 52 -45 79 -56 50z"/>
<path d="M9350 3497 c-49 -17 -100 -94 -100 -152 0 -76 44 -81 48 -6 3 36 13
61 38 85 27 27 57 19 95 -26 56 -68 66 -89 74 -152 4 -32 11 -68 15 -80 5 -12
17 -51 27 -88 34 -129 53 -57 23 87 -6 28 -17 84 -24 125 -15 83 -37 129 -81
176 -36 38 -68 46 -115 31z"/>
<path d="M9331 3197 c-29 -61 -30 -65 -29 -222 1 -182 13 -279 40 -314 10 -13
18 -28 18 -33 0 -4 11 -26 24 -47 19 -29 33 -40 58 -44 18 -3 37 -1 42 4 14
13 -10 51 -48 76 -48 31 -81 109 -90 211 -4 54 -3 82 4 82 5 0 10 -8 10 -19 0
-24 25 -45 45 -37 19 7 19 40 0 56 -8 7 -15 26 -15 42 0 29 -2 30 -30 24 l-30
-6 5 67 c3 36 10 72 16 79 6 7 8 18 4 23 -10 16 14 51 35 51 12 0 21 -10 25
-31 4 -17 4 -33 1 -36 -3 -3 1 -18 8 -32 20 -37 57 -162 56 -191 0 -14 1 -62
4 -107 3 -63 0 -83 -9 -83 -12 0 -25 -21 -25 -41 0 -15 34 -9 58 10 15 14 22
30 22 55 0 20 5 36 11 36 7 0 9 11 5 33 -4 17 -11 59 -15 92 -5 33 -20 92 -35
131 -14 39 -26 78 -26 85 0 24 -47 131 -61 140 -32 20 -48 8 -78 -54z"/>
</g>
</svg>
